<svg width="343" height="60" viewBox="0 0 343 60" fill="none" xmlns="http://www.w3.org/2000/svg">
<g clip-path="url(#clip0_14_2)">
<path d="M56.9688 20.5312L85.25 -0.1875C82.8958 1.625 80.6771 3.59375 78.5938 5.71875C77.3646 6.92708 76.3438 8.01042 75.5312 8.96875C74.7188 9.92708 73.9167 10.9688 73.125 12.0938C72.3333 13.1979 71.5833 14.375 70.875 15.625C70.1875 16.8542 69.6146 18.125 69.1562 19.4375L60.8125 53.1875H49.0938C47.9062 49.7708 46.8542 46.7188 45.9375 44.0312C45.375 42.4062 44.9271 41.125 44.5938 40.1875C44.2604 39.2292 43.9583 38.3542 43.6875 37.5625C43.4167 36.7708 43.1875 36.1146 43 35.5938C42.8125 35.0729 42.7188 34.8021 42.7188 34.7812C42.4479 33.9688 42.0312 33.5625 41.4688 33.5625C41.0729 33.5625 40.6146 33.7604 40.0938 34.1562C38.9896 34.9479 38.1771 35.6562 37.6562 36.2812C37.1562 36.8854 36.8021 37.4792 36.5938 38.0625L32.8438 53.1875H23.4688C21.2396 53.25 19.1146 53.5208 17.0938 54C15.0521 54.4792 13.2292 55 11.625 55.5625C10.0208 56.1458 8.69792 56.6979 7.65625 57.2188C6.59375 57.7396 5.9375 58.0729 5.6875 58.2188L50.2812 25.4688L53.4688 34.75L56.9688 20.5312ZM72 7.28125L51.8438 22.0938C52.5938 21.3646 53.375 20.4375 54.1875 19.3125C55.0208 18.1667 55.8125 16.9479 56.5625 15.6562C57.3125 14.3646 57.9896 13.0729 58.5938 11.7812C59.1979 10.4896 59.6667 9.33333 60 8.3125L60.25 7.28125H72ZM38.0312 32.25L23.4062 42.9688L32.25 7.28125H44.0312L49.6562 23.6875L41.0938 30L39.625 25.75L38.0312 32.25Z" fill="white"/>
<path d="M2.125 53L11.9062 6.9375H21.4688L11.6875 53H2.125ZM78.3125 15.0938L80.0625 6.9375H117.375L115.625 15.0938H101.844L93.8125 53H84.125L92.1562 15.0938H78.3125ZM150.188 44.7188L148.438 53H113.531L123.312 6.9375H157.094L155.344 15.0938H130.969L128.906 24.875H151.281L149.562 32.875H127.188L124.688 44.7188H150.188ZM183.875 50.5312C183.896 49.2396 184.042 47.9167 184.312 46.5625L185.156 42.2812C185.74 39.3438 185.615 37.3854 184.781 36.4062C183.969 35.4271 182.146 34.9375 179.312 34.9375H169.375L165.562 53H156.156L165.938 6.9375H188.531C191.74 7 194.135 7.39583 195.719 8.125C197.302 8.85417 198.552 9.92708 199.469 11.3438C200.219 12.5104 200.729 13.8021 201 15.2188C201.292 16.6354 201.25 18.25 200.875 20.0625C200.396 22.25 199.375 24.4062 197.812 26.5312C196.271 28.6354 194.135 30.125 191.406 31C193.344 31.8542 194.583 33.0729 195.125 34.6562C195.688 36.2188 195.625 38.6146 194.938 41.8438L194.281 44.9375C193.844 47.0417 193.625 48.4688 193.625 49.2188C193.625 50.4062 194.021 51.2812 194.812 51.8438L194.594 53H184C183.917 51.9792 183.875 51.1562 183.875 50.5312ZM184.812 14.9375H173.625L171 27.3125H181.906C184.073 27.3125 185.75 27.0625 186.938 26.5625C189.042 25.6875 190.375 23.9583 190.938 21.375C191.521 18.5833 190.99 16.7083 189.344 15.75C188.406 15.2083 186.896 14.9375 184.812 14.9375ZM236.031 6.9375L242.562 53H232.125L231.156 43.5312H214.188L209 53H198.938L225.156 6.9375H236.031ZM228.25 17.4688L218.469 35.5938H230.156L228.25 17.4688ZM276.062 53.25C273.854 53.9375 271.312 54.2812 268.438 54.2812C262.438 54.2812 257.854 52.4896 254.688 48.9062C250.854 44.5938 249.833 38.2604 251.625 29.9062C253.396 21.4896 257.177 15.125 262.969 10.8125C267.698 7.29167 273.021 5.53125 278.938 5.53125C284.896 5.53125 289.5 7.39583 292.75 11.125C296.5 15.4375 297.552 21.4688 295.906 29.2188C295.031 33.3229 293.802 36.7604 292.219 39.5312C290.844 42.1771 289.177 44.375 287.219 46.125L291.469 51.0938L285.344 56.3438L280.875 51.0938C278.979 52.1146 277.375 52.8333 276.062 53.25ZM272.062 40.5L278.125 35.3125L281.844 39.75C282.885 38.25 283.667 36.9375 284.188 35.8125C285.021 34.125 285.677 32.1562 286.156 29.9062C287.24 24.7396 287.021 20.75 285.5 17.9375C284 15.1042 281.219 13.6875 277.156 13.6875C273.344 13.6875 270.01 15.0417 267.156 17.75C264.323 20.4583 262.333 24.5104 261.188 29.9062C259.833 36.2188 260.49 40.7396 263.156 43.4688C264.885 45.2396 267.219 46.125 270.156 46.125C271.26 46.125 272.354 45.9896 273.438 45.7188C274.042 45.5729 274.812 45.3125 275.75 44.9375L272.062 40.5ZM302.438 15.0938L304.188 6.9375H341.5L339.75 15.0938H325.969L317.938 53H308.25L316.281 15.0938H302.438Z" fill="white"/>
</g>
<defs>
<clipPath id="clip0_14_2">
<rect width="343" height="60" fill="white"/>
</clipPath>
</defs>
</svg>
