<svg width="100" height="100" viewBox="0 0 100 100" fill="none" xmlns="http://www.w3.org/2000/svg">
<g clip-path="url(#clip0_80_6)">
<rect width="100" height="100" fill="white"/>
<path d="M66.9688 40.5312L95.25 19.8125C92.8958 21.625 90.6771 23.5938 88.5938 25.7188C87.3646 26.9271 86.3438 28.0104 85.5312 28.9688C84.7188 29.9271 83.9167 30.9688 83.125 32.0938C82.3333 33.1979 81.5833 34.375 80.875 35.625C80.1875 36.8542 79.6146 38.125 79.1562 39.4375L70.8125 73.1875H59.0938C57.9062 69.7708 56.8542 66.7188 55.9375 64.0312C55.375 62.4062 54.9271 61.125 54.5938 60.1875C54.2604 59.2292 53.9583 58.3542 53.6875 57.5625C53.4167 56.7708 53.1875 56.1146 53 55.5938C52.8125 55.0729 52.7188 54.8021 52.7188 54.7812C52.4479 53.9688 52.0312 53.5625 51.4688 53.5625C51.0729 53.5625 50.6146 53.7604 50.0938 54.1562C48.9896 54.9479 48.1771 55.6562 47.6562 56.2812C47.1562 56.8854 46.8021 57.4792 46.5938 58.0625L42.8438 73.1875H33.4688C31.2396 73.25 29.1146 73.5208 27.0938 74C25.0521 74.4792 23.2292 75 21.625 75.5625C20.0208 76.1458 18.6979 76.6979 17.6562 77.2188C16.5938 77.7396 15.9375 78.0729 15.6875 78.2188L60.2812 45.4688L63.4688 54.75L66.9688 40.5312ZM82 27.2812L61.8438 42.0938C62.5938 41.3646 63.375 40.4375 64.1875 39.3125C65.0208 38.1667 65.8125 36.9479 66.5625 35.6562C67.3125 34.3646 67.9896 33.0729 68.5938 31.7812C69.1979 30.4896 69.6667 29.3333 70 28.3125L70.25 27.2812H82ZM48.0312 52.25L33.4062 62.9688L42.25 27.2812H54.0312L59.6562 43.6875L51.0938 50L49.625 45.75L48.0312 52.25Z" fill="black"/>
<path d="M12.125 73L21.9062 26.9375H31.4688L21.6875 73H12.125Z" fill="black"/>
</g>
<defs>
<clipPath id="clip0_80_6">
<rect width="100" height="100" fill="white"/>
</clipPath>
</defs>
</svg>
