<svg width="100" height="100" viewBox="0 0 100 100" fill="none" xmlns="http://www.w3.org/2000/svg">
<g clip-path="url(#clip0_80_10)">
<rect width="100" height="100" fill="black"/>
<path d="M65.9688 38.5312L94.25 17.8125C91.8958 19.625 89.6771 21.5938 87.5938 23.7188C86.3646 24.9271 85.3438 26.0104 84.5312 26.9688C83.7188 27.9271 82.9167 28.9688 82.125 30.0938C81.3333 31.1979 80.5833 32.375 79.875 33.625C79.1875 34.8542 78.6146 36.125 78.1562 37.4375L69.8125 71.1875H58.0938C56.9062 67.7708 55.8542 64.7188 54.9375 62.0312C54.375 60.4062 53.9271 59.125 53.5938 58.1875C53.2604 57.2292 52.9583 56.3542 52.6875 55.5625C52.4167 54.7708 52.1875 54.1146 52 53.5938C51.8125 53.0729 51.7188 52.8021 51.7188 52.7812C51.4479 51.9688 51.0312 51.5625 50.4688 51.5625C50.0729 51.5625 49.6146 51.7604 49.0938 52.1562C47.9896 52.9479 47.1771 53.6562 46.6562 54.2812C46.1562 54.8854 45.8021 55.4792 45.5938 56.0625L41.8438 71.1875H32.4688C30.2396 71.25 28.1146 71.5208 26.0938 72C24.0521 72.4792 22.2292 73 20.625 73.5625C19.0208 74.1458 17.6979 74.6979 16.6562 75.2188C15.5938 75.7396 14.9375 76.0729 14.6875 76.2188L59.2812 43.4688L62.4688 52.75L65.9688 38.5312ZM81 25.2812L60.8438 40.0938C61.5938 39.3646 62.375 38.4375 63.1875 37.3125C64.0208 36.1667 64.8125 34.9479 65.5625 33.6562C66.3125 32.3646 66.9896 31.0729 67.5938 29.7812C68.1979 28.4896 68.6667 27.3333 69 26.3125L69.25 25.2812H81ZM47.0312 50.25L32.4062 60.9688L41.25 25.2812H53.0312L58.6562 41.6875L50.0938 48L48.625 43.75L47.0312 50.25Z" fill="white"/>
<path d="M11.125 71L20.9062 24.9375H30.4688L20.6875 71H11.125Z" fill="white"/>
</g>
<defs>
<clipPath id="clip0_80_10">
<rect width="100" height="100" fill="white"/>
</clipPath>
</defs>
</svg>
